<svg xmlns="http://www.w3.org/2000/svg" aria-hidden="true" style="position:absolute;width:0;height:0;overflow:hidden">
  <defs>
    <symbol id="icon-gallery" viewBox="0 0 36 32">
      <path d="M34 4h-2V2c0-1.1-.9-2-2-2H2C.9 0 0 .9 0 2v24c0 1.1.9 2 2 2h2v2c0 1.1.9 2 2 2h28c1.1 0 2-.9 2-2V6c0-1.1-.9-2-2-2zM4 6v20H2.004L2 25.996V2.003l.004-.004h27.993l.004.004v1.996h-24c-1.1 0-2 .9-2 2zm30 23.996-.004.004H6.003l-.004-.004V6.003l.004-.004h27.993l.004.004v23.993z"/>
      <path d="M30 11a3 3 0 1 1-6 0 3 3 0 0 1 6 0zM32 28H8v-4l7-12 8 10h2l7-6z"/>
    </symbol>
    <symbol id="icon-form" viewBox="0 0 32 32">
      <path d="M28.681 7.159c-.694-.947-1.662-2.053-2.724-3.116s-2.169-2.03-3.116-2.724C21.229.137 20.448 0 20 0H4.5A2.503 2.503 0 0 0 2 2.5v27C2 30.878 3.122 32 4.5 32h23c1.378 0 2.5-1.122 2.5-2.5V10c0-.448-.137-1.23-1.319-2.841zm-4.138-1.702A27.334 27.334 0 0 1 26.811 8H22V3.189a27.334 27.334 0 0 1 2.543 2.268zM28 29.5c0 .271-.229.5-.5.5h-23a.507.507 0 0 1-.5-.5v-27c0-.271.229-.5.5-.5H20v7a1 1 0 0 0 1 1h7v19.5z"/>
      <path d="M23 26H9a1 1 0 0 1 0-2h14a1 1 0 0 1 0 2zM23 22H9a1 1 0 0 1 0-2h14a1 1 0 0 1 0 2zM23 18H9a1 1 0 0 1 0-2h14a1 1 0 0 1 0 2z"/>
    </symbol>
  </defs>
</svg>